<?xml version="1.0" encoding="UTF-8" standalone="no"?>
<svg
   xmlns:dc="http://purl.org/dc/elements/1.1/"
   xmlns:cc="http://creativecommons.org/ns#"
   xmlns:rdf="http://www.w3.org/1999/02/22-rdf-syntax-ns#"
   xmlns:svg="http://www.w3.org/2000/svg"
   xmlns="http://www.w3.org/2000/svg"
   xmlns:sodipodi="http://sodipodi.sourceforge.net/DTD/sodipodi-0.dtd"
   xmlns:inkscape="http://www.inkscape.org/namespaces/inkscape"
   sodipodi:docname="FT-Mini TinyTrainer-plans_2.svg"
   inkscape:version="1.0 (4035a4fb49, 2020-05-01)"
   id="svg959"
   version="1.1"
   viewBox="0 0 500 730"
   height="730mm"
   width="500mm">
  <defs
     id="defs953" />
  <sodipodi:namedview
     inkscape:window-maximized="0"
     inkscape:window-y="0"
     inkscape:window-x="923"
     inkscape:window-height="1050"
     inkscape:window-width="927"
     showgrid="false"
     inkscape:document-rotation="0"
     inkscape:current-layer="layer1"
     inkscape:document-units="mm"
     inkscape:cy="1335.5138"
     inkscape:cx="992.35119"
     inkscape:zoom="0.175"
     inkscape:pageshadow="2"
     inkscape:pageopacity="0.0"
     borderopacity="1.0"
     bordercolor="#666666"
     pagecolor="#ffffff"
     id="base" />
  <metadata
     id="metadata956">
    <rdf:RDF>
      <cc:Work
         rdf:about="">
        <dc:format>image/svg+xml</dc:format>
        <dc:type
           rdf:resource="http://purl.org/dc/dcmitype/StillImage" />
        <dc:title></dc:title>
      </cc:Work>
    </rdf:RDF>
  </metadata>
  <g
     id="layer1"
     inkscape:groupmode="layer"
     inkscape:label="Layer 1">
    <g
       id="g1423">
      <path
         d="M 229.28539,232.36306 32.342979,32.261163"
         style="fill:none;stroke:#ec1c24;stroke-width:0.176389;stroke-linecap:butt;stroke-linejoin:miter;stroke-miterlimit:2.613;stroke-dasharray:none;stroke-opacity:1"
         id="path3451" />
      <path
         d="m 435.41667,244.80337 h 4.318 V 88.782113 h -4.318 z"
         style="fill:none;stroke:#ec1c24;stroke-width:0.176389;stroke-linecap:butt;stroke-linejoin:miter;stroke-miterlimit:2.613;stroke-dasharray:none;stroke-opacity:1"
         id="path3287" />
      <path
         id="path3295"
         style="fill:none;stroke:#ec1c24;stroke-width:0.176389;stroke-linecap:butt;stroke-linejoin:miter;stroke-miterlimit:2.613;stroke-dasharray:none;stroke-opacity:1"
         d="M 480.93358,88.782223 V 244.80348" />
      <path
         d="m 323.60587,313.8755 h 4.318 V 169.46239 h -4.318 z"
         style="fill:none;stroke:#ec1c24;stroke-width:0.176389;stroke-linecap:butt;stroke-linejoin:miter;stroke-miterlimit:2.613;stroke-dasharray:none;stroke-opacity:1"
         id="path3317" />
      <path
         d="m 369.12268,313.8755 h 4.318 V 169.46239 h -4.318 z"
         style="fill:none;stroke:#ec1c24;stroke-width:0.176389;stroke-linecap:butt;stroke-linejoin:miter;stroke-miterlimit:2.613;stroke-dasharray:none;stroke-opacity:1"
         id="path3323" />
      <path
         sodipodi:nodetypes="cc"
         id="path3165"
         style="fill:none;stroke:#ec1c24;stroke-width:0.176389;stroke-linecap:butt;stroke-linejoin:miter;stroke-miterlimit:2.613;stroke-dasharray:none;stroke-opacity:1"
         d="m 334.89521,422.33544 140.56686,23.44402" />
    </g>
    <g
       id="g1415">
      <path
         d="m 189.58529,251.88119 -88.69503,-90.11778 m 111.79986,90.30158 c -6.40433,6.30343 -16.80104,6.22159 -23.10483,-0.1838 m 51.97934,-28.23457 -28.87451,28.41837 m 32.44321,-48.61172 c 3.68723,11.14355 -1.1049,17.76836 -3.5687,20.19335 M 203.17959,76.650482 245.13333,203.45327 m -49.73355,-134.707128 7.77981,7.90434"
         style="fill:none;stroke:#231f20;stroke-width:0.176389;stroke-linecap:butt;stroke-linejoin:miter;stroke-miterlimit:2.613;stroke-dasharray:none;stroke-opacity:1"
         id="path3447"
         sodipodi:nodetypes="cccccccccccc" />
      <path
         d="M 12.195593,71.645912 100.89026,161.76369 M 12.37939,48.540729 C 5.9750626,54.844163 5.8911015,65.240522 12.195593,71.645912 M 41.253546,20.122352 12.37939,48.540729 M 83.495847,24.542668 61.501212,16.875385 C 50.417657,13.01141 43.717349,17.697357 41.253546,20.122352 M 184.94662,59.909702 83.495847,24.542668 m 111.903933,44.203404 -10.45316,-8.83637"
         style="fill:none;stroke:#231f20;stroke-width:0.176389;stroke-linecap:butt;stroke-linejoin:miter;stroke-miterlimit:2.613;stroke-dasharray:none;stroke-opacity:1"
         id="path3455"
         sodipodi:nodetypes="ccccccccccccc" />
      <path
         d="m 160.60845,99.800852 -13.28491,13.074998 3.18699,3.23815 13.28491,-13.075 m 1.81046,-1.78153 13.28455,-13.074998 -3.187,-3.2385 -13.28455,13.075"
         style="fill:none;stroke:#231f20;stroke-width:0.176389;stroke-linecap:butt;stroke-linejoin:miter;stroke-miterlimit:2.613;stroke-dasharray:none;stroke-opacity:1"
         id="path3459" />
      <path
         d="m 139.15204,151.64662 -7.24111,7.12682"
         style="fill:none;stroke:#231f20;stroke-width:0.176389;stroke-linecap:butt;stroke-linejoin:miter;stroke-miterlimit:2.613;stroke-dasharray:none;stroke-opacity:1"
         id="path3463" />
      <path
         sodipodi:nodetypes="cccc"
         id="path3291"
         style="fill:none;stroke:#231f20;stroke-width:0.176389;stroke-linecap:butt;stroke-linejoin:miter;stroke-miterlimit:2.613;stroke-dasharray:none;stroke-opacity:1"
         d="M 485.25158,88.782223 V 244.80348 M 435.41678,88.782223 h 49.8348" />
      <path
         sodipodi:nodetypes="cc"
         id="path3299"
         style="fill:none;stroke:#231f20;stroke-width:0.176389;stroke-linecap:butt;stroke-linejoin:miter;stroke-miterlimit:2.613;stroke-dasharray:none;stroke-opacity:1"
         d="m 436.89845,244.80331 48.35313,1.7e-4" />
      <path
         id="path3303"
         style="fill:none;stroke:#231f20;stroke-width:0.176389;stroke-linecap:butt;stroke-linejoin:miter;stroke-miterlimit:2.613;stroke-dasharray:none;stroke-opacity:1"
         d="m 461.60425,172.00691 c 4.88844,-0.62865 8.69774,-4.83447 8.69774,-9.8866 v -21.90715 c 0,-5.05213 -3.8093,-9.25794 -8.69774,-9.88659 m -2.54,0 c -4.88844,0.62865 -8.69773,4.83446 -8.69773,9.88659 v 21.90715 c 0,5.05213 3.80929,9.25795 8.69773,9.8866" />
      <path
         id="path3307"
         style="fill:none;stroke:#231f20;stroke-width:0.176389;stroke-linecap:butt;stroke-linejoin:miter;stroke-miterlimit:2.613;stroke-dasharray:none;stroke-opacity:1"
         d="M 377.75846,22.459823 V 169.46232 h -4.318" />
      <path
         sodipodi:nodetypes="cccc"
         id="path3311"
         style="fill:none;stroke:#231f20;stroke-width:0.176389;stroke-linecap:butt;stroke-linejoin:miter;stroke-miterlimit:2.613;stroke-dasharray:none;stroke-opacity:1"
         d="m 388.51459,22.459823 46.90215,66.32222 m -57.65828,-66.32222 h 10.75613" />
      <path
         id="path3315"
         style="fill:none;stroke:#231f20;stroke-width:0.176389;stroke-linecap:butt;stroke-linejoin:miter;stroke-miterlimit:2.613;stroke-dasharray:none;stroke-opacity:1"
         d="m 435.41678,244.80331 c 0,16.42251 -11.8491,80.47496 -29.85911,80.47496 H 382.3971 c -4.92583,0 -8.95667,-4.0305 -8.95667,-8.95667 v -2.44618" />
      <path
         id="path3321"
         style="fill:none;stroke:#231f20;stroke-width:0.176389;stroke-linecap:butt;stroke-linejoin:miter;stroke-miterlimit:2.613;stroke-dasharray:none;stroke-opacity:1"
         d="M 325.16145,169.46232 H 371.2815" />
      <path
         id="path3327"
         style="fill:none;stroke:#231f20;stroke-width:0.176389;stroke-linecap:butt;stroke-linejoin:miter;stroke-miterlimit:2.613;stroke-dasharray:none;stroke-opacity:1"
         d="m 324.62173,313.87542 h 47.80281" />
      <path
         id="path3331"
         style="fill:none;stroke:#231f20;stroke-width:0.176389;stroke-linecap:butt;stroke-linejoin:miter;stroke-miterlimit:2.613;stroke-dasharray:none;stroke-opacity:1"
         d="m 485.25158,122.87251 v -2.44616" />
      <path
         id="path3391"
         style="fill:none;stroke:#231f20;stroke-width:0.176389;stroke-linecap:butt;stroke-linejoin:miter;stroke-miterlimit:2.613;stroke-dasharray:none;stroke-opacity:1"
         d="M 319.28787,22.459823 V 169.46232 h 4.318" />
      <path
         sodipodi:nodetypes="ccc"
         id="path3395"
         style="fill:none;stroke:#231f20;stroke-width:0.176389;stroke-linecap:butt;stroke-linejoin:miter;stroke-miterlimit:2.613;stroke-dasharray:none;stroke-opacity:1"
         d="m 319.28787,22.459823 h -10.75598 l -46.90251,66.32222" />
      <path
         id="path3399"
         style="fill:none;stroke:#231f20;stroke-width:0.176389;stroke-linecap:butt;stroke-linejoin:miter;stroke-miterlimit:2.613;stroke-dasharray:none;stroke-opacity:1"
         d="m 261.62956,244.80331 c 0,16.42251 11.8491,80.47496 29.85911,80.47496 h 23.16057 c 4.92618,0 8.95667,-4.0305 8.95667,-8.95667 v -2.44618" />
      <path
         sodipodi:nodetypes="cc"
         id="path3419"
         style="fill:none;stroke:#231f20;stroke-width:0.176389;stroke-linecap:butt;stroke-linejoin:miter;stroke-miterlimit:2.613;stroke-dasharray:none;stroke-opacity:1"
         d="M 261.62956,244.80331 261.62938,88.782043" />
      <path
         d="M 75.417535,310.49666 H 259.56752 m -184.149985,-25.4 v 25.4 m 184.149985,-25.4 H 75.417535 m 184.149985,25.4 v -25.4"
         style="fill:none;stroke:#231f20;stroke-width:0.176389;stroke-linecap:butt;stroke-linejoin:miter;stroke-miterlimit:2.613;stroke-dasharray:none;stroke-opacity:1"
         id="path3503"
         sodipodi:nodetypes="cccccccc" />
      <path
         d="m 129.78849,324.57775 h 128.88488 m -128.88488,-6.35 v 6.35 m 128.88488,-6.35 H 129.78849 m 128.88488,6.35 v -6.35"
         style="fill:none;stroke:#231f20;stroke-width:0.176389;stroke-linecap:butt;stroke-linejoin:miter;stroke-miterlimit:2.613;stroke-dasharray:none;stroke-opacity:1"
         id="path3507"
         sodipodi:nodetypes="cccccccc" />
      <path
         d="m 129.78849,332.27332 h 128.88488 m -128.88488,-6.35 v 6.35 m 128.88488,-6.35 H 129.78849 m 128.88488,6.35 v -6.35"
         style="fill:none;stroke:#231f20;stroke-width:0.176389;stroke-linecap:butt;stroke-linejoin:miter;stroke-miterlimit:2.613;stroke-dasharray:none;stroke-opacity:1"
         id="path3511"
         sodipodi:nodetypes="cccccccc" />
      <path
         sodipodi:nodetypes="cccccccc"
         id="path3285"
         style="fill:none;stroke:#231f20;stroke-width:0.176389;stroke-linecap:butt;stroke-linejoin:miter;stroke-miterlimit:2.613;stroke-dasharray:none;stroke-opacity:1"
         d="M 256.54371,372.48475 H 72.393725 m 184.149985,-25.4 v 25.4 m -184.149985,-25.4 H 256.54371 m -184.149985,25.4 v -25.4" />
      <path
         sodipodi:nodetypes="cccccccc"
         id="path3495"
         style="fill:none;stroke:#231f20;stroke-width:0.176389;stroke-linecap:butt;stroke-linejoin:miter;stroke-miterlimit:2.613;stroke-dasharray:none;stroke-opacity:1"
         d="M 202.17282,386.56584 H 73.287945 m 128.884875,-6.35 v 6.35 m -128.884875,-6.35 H 202.17282 m -128.884875,6.35 v -6.35" />
      <path
         sodipodi:nodetypes="cccccccc"
         id="path3499"
         style="fill:none;stroke:#231f20;stroke-width:0.176389;stroke-linecap:butt;stroke-linejoin:miter;stroke-miterlimit:2.613;stroke-dasharray:none;stroke-opacity:1"
         d="M 202.17282,394.26141 H 73.287945 m 128.884875,-6.35 v 6.35 m -128.884875,-6.35 H 202.17282 m -128.884875,6.35 v -6.35" />
      <path
         sodipodi:nodetypes="ccccccccccccccccccccccc"
         id="path3161"
         style="fill:none;stroke:#231f20;stroke-width:0.176389;stroke-linecap:butt;stroke-linejoin:miter;stroke-miterlimit:2.613;stroke-dasharray:none;stroke-opacity:1"
         d="m 382.49622,338.3267 90.42012,82.24062 c 2.78695,2.82292 5.45042,6.41244 4.91631,9.8559 m -128.4545,-97.54305 33.11807,5.44653 m -57.41952,56.65258 c -0.92675,-0.14816 -1.92687,-1.67075 -1.60796,-2.32833 l 17.5267,-35.40795 4.26085,0.70062 4.12186,-25.06345 m -14.48294,89.45527 4.12186,-25.06345 -13.94037,-2.29271 m 24.50394,76.6124 -14.68543,-49.25624 m 18.41041,51.74932 c -1.62101,-0.0942 -3.09068,-0.78775 -3.72498,-2.49308 m 114.07423,2.88396 -110.34925,-0.39088 m 118.94009,-7.8934 c -0.98742,6.32177 -2.71462,8.30509 -8.59084,8.28428 m 14.17778,-44.05242 -5.58694,35.76814" />
      <path
         id="path3169"
         style="fill:none;stroke:#231f20;stroke-width:0.176389;stroke-linecap:butt;stroke-linejoin:miter;stroke-miterlimit:2.613;stroke-dasharray:none;stroke-opacity:1"
         d="m 350.68501,442.95096 1.64889,-10.02524" />
      <path
         sodipodi:nodetypes="cccccccccccccc"
         d="M 14.514286,118.23095 H 39.91429 m -25.400004,66.55894 v -66.55894 m 0,263.19727 V 184.78989 m 0,375.49702 V 381.42822 m 0,232.10273 V 560.28691 M 39.91429,613.53095 H 14.514286 m 25.400004,-495.3 v 495.3"
         style="fill:none;stroke:#231f20;stroke-width:0.176389;stroke-linecap:butt;stroke-linejoin:miter;stroke-miterlimit:2.613;stroke-dasharray:none;stroke-opacity:1"
         id="path2078" />
    </g>
  </g>
</svg>
