<?xml version="1.0" encoding="UTF-8" standalone="no"?>
<svg
   xmlns:dc="http://purl.org/dc/elements/1.1/"
   xmlns:cc="http://creativecommons.org/ns#"
   xmlns:rdf="http://www.w3.org/1999/02/22-rdf-syntax-ns#"
   xmlns:svg="http://www.w3.org/2000/svg"
   xmlns="http://www.w3.org/2000/svg"
   xmlns:sodipodi="http://sodipodi.sourceforge.net/DTD/sodipodi-0.dtd"
   xmlns:inkscape="http://www.inkscape.org/namespaces/inkscape"
   sodipodi:docname="servo_horn.svg"
   inkscape:version="1.0 (4035a4fb49, 2020-05-01)"
   id="svg5042"
   version="1.1"
   viewBox="0 0 210 297"
   height="297mm"
   width="210mm">
  <defs
     id="defs5036" />
  <sodipodi:namedview
     inkscape:window-maximized="0"
     inkscape:window-y="0"
     inkscape:window-x="171"
     inkscape:window-height="1045"
     inkscape:window-width="1274"
     showgrid="false"
     inkscape:document-rotation="0"
     inkscape:current-layer="layer1"
     inkscape:document-units="mm"
     inkscape:cy="374.3459"
     inkscape:cx="232.89919"
     inkscape:zoom="7.9195959"
     inkscape:pageshadow="2"
     inkscape:pageopacity="0.0"
     borderopacity="1.0"
     bordercolor="#666666"
     pagecolor="#ffffff"
     id="base" />
  <metadata
     id="metadata5039">
    <rdf:RDF>
      <cc:Work
         rdf:about="">
        <dc:format>image/svg+xml</dc:format>
        <dc:type
           rdf:resource="http://purl.org/dc/dcmitype/StillImage" />
        <dc:title></dc:title>
      </cc:Work>
    </rdf:RDF>
  </metadata>
  <g
     id="layer1"
     inkscape:groupmode="layer"
     inkscape:label="Layer 1">
    <path
       style="fill:#000000;stroke:#221f1f;stroke-miterlimit:2.613;stroke-dasharray:none;stroke-opacity:1"
       d="m 59.537058,107.58418 -1.080679,-1.08087 v -0.95076 -0.95075 h -1.425371 -1.425371 l -0.02773,-0.25395 c -0.164949,-1.51087 -1.143024,-2.84382 -2.645118,-3.60485 -0.533194,-0.27014 -1.049759,-0.42963 -1.581754,-0.48838 l -0.265197,-0.0293 v -3.087843 c 0,-2.974208 0.0017,-3.094408 0.04564,-3.266281 0.205076,-0.801838 0.963448,-1.325577 2.081563,-1.43755 0.470365,-0.0471 1.015983,0.03171 1.37659,0.198839 0.09332,0.04325 0.802186,0.445655 1.575265,0.894234 4.485403,2.602653 12.293139,7.127431 13.406343,7.769311 0.714612,0.41205 1.376948,0.79931 1.47186,0.86057 0.198438,0.12809 0.277356,0.23239 0.311311,0.41144 0.0138,0.0728 0.02403,0.53264 0.02403,1.08022 v 0.95353 h -1.393787 -1.393787 v 0.96275 0.96276 l -1.06906,1.06887 -1.06906,1.06886 H 63.53524 60.617736 Z M 53.649259,97.233139 c 0.21489,-0.09405 0.340916,-0.295566 0.341757,-0.54648 0.0012,-0.373064 -0.306097,-0.650433 -0.667596,-0.602479 -0.447766,0.0594 -0.685343,0.568871 -0.436037,0.935062 0.170842,0.250941 0.479336,0.33755 0.761876,0.213897 z"
       id="path5025" />
  </g>
</svg>
